<?xml version="1.0" encoding="UTF-8" standalone="no"?>
<!-- Created with Inkscape (http://www.inkscape.org/) -->

<svg
   version="1.1"
   id="svg1869"
   width="512"
   height="512"
   viewBox="0 0 512 512"
   sodipodi:docname="dry.svg"
   inkscape:version="1.1.2 (0a00cf5339, 2022-02-04)"
   xmlns:inkscape="http://www.inkscape.org/namespaces/inkscape"
   xmlns:sodipodi="http://sodipodi.sourceforge.net/DTD/sodipodi-0.dtd"
   xmlns="http://www.w3.org/2000/svg"
   xmlns:svg="http://www.w3.org/2000/svg">
  <defs
     id="defs1873" />
  <sodipodi:namedview
     id="namedview1871"
     pagecolor="#ffffff"
     bordercolor="#666666"
     borderopacity="1.0"
     inkscape:pageshadow="2"
     inkscape:pageopacity="0.0"
     inkscape:pagecheckerboard="0"
     showgrid="false"
     inkscape:zoom="1.4042969"
     inkscape:cx="187.99444"
     inkscape:cy="256"
     inkscape:window-width="2560"
     inkscape:window-height="1007"
     inkscape:window-x="1920"
     inkscape:window-y="36"
     inkscape:window-maximized="1"
     inkscape:current-layer="g1875" />
  <g
     inkscape:groupmode="layer"
     inkscape:label="Image"
     id="g1875">
    <path
       style="fill:#000000"
       d="m 176.6735,512.99007 c -14.59445,-2.02452 -18.97304,-2.80071 -25.5,-4.52037 C 95.447633,493.78758 50.35341,448.22443 35.6142,391.70873 26.38933,356.33709 29.2981,318.91732 44.29233,280.06913 50.385547,264.28236 58.126768,249.9488 72.013104,228.74165 111.53549,168.38324 143.99167,103.26808 176.74319,18.627084 c 2.64792,-6.843124 5.61653,-13.2441785 6.59692,-14.2245645 3.66044,-3.660445 10.13623,-3.571455 13.63815,0.187415 1.02306,1.098128 5.14356,10.4301815 9.15668,20.7378955 26.34465,67.66646 62.17086,140.98481 90.44426,185.09418 5.37739,8.38927 5.00631,8.34789 18.28455,2.03915 16.12532,-7.66145 29.27329,-20.85888 37.25189,-37.39203 7.21339,-14.94749 7.38883,-16.30865 7.7976,-60.5 l 0.36538,-39.500001 -6.30256,6.106241 c -11.15316,10.80574 -14.58298,11.81334 -20.40256,5.99376 -4.28209,-4.28209 -4.42785,-7.90249 -0.53144,-13.199963 4.96367,-6.748504 31.61719,-32.232866 34.45711,-32.94564 5.11309,-1.283305 7.92561,0.575652 22.4801,14.858408 21.81815,21.410795 23.51306,24.568365 16.79423,31.287195 -5.8059,5.80589 -9.28148,4.79672 -20.27003,-5.88562 l -6.17003,-5.998088 -0.40328,40.391858 c -0.45822,45.89458 -0.83614,48.6179 -9.23028,66.51446 -11.04637,23.55119 -28.61346,40.70165 -51.52638,50.30435 -3.025,1.26777 -5.64843,2.43876 -5.82984,2.6022 -0.18141,0.16345 2.42967,4.94875 5.8024,10.63401 10.95287,18.46277 19.33387,38.00934 24.0484,56.08683 1.72181,6.60213 2.69247,8.75 3.95429,8.75 0.91977,0 5.91412,-0.72803 11.09853,-1.61784 39.91721,-6.85109 72.43466,-34.30768 85.72378,-72.38216 3.57782,-10.25075 6.20244,-24.80632 6.20244,-34.39733 v -7.04489 l -6.25,6.07735 c -11.0748,10.76886 -14.5325,11.78237 -20.35,5.96487 -6.71883,-6.71883 -5.02392,-9.87639 16.79423,-31.28719 14.55449,-14.28276 17.36701,-16.14172 22.4801,-14.85841 2.83992,0.71277 29.49344,26.19713 34.45711,32.94564 3.89641,5.29748 3.75065,8.91787 -0.53144,13.19996 -5.79467,5.79467 -9.28743,4.78979 -20.19344,-5.8097 l -6.09344,-5.92218 -0.62437,10.81594 c -1.17529,20.35911 -5.48869,36.33451 -14.56798,53.95493 -20.13487,39.07628 -58.5289,65.00534 -103.0707,69.60786 l -2.44994,0.25315 -0.14908,19.5 c -0.10223,13.3715 -0.67373,22.32854 -1.81842,28.5 -3.5735,19.26601 -13.75097,46.3682 -18.71902,49.84795 -2.94257,2.06106 -8.77781,2.13589 -11.61458,0.14895 -1.18028,-0.82671 -2.65065,-3.03228 -3.26747,-4.90128 -1.02227,-3.0975 -0.68163,-4.4466 3.84975,-15.2469 9.82971,-23.42858 13.85757,-48.41866 11.47623,-71.20203 l -0.64245,-6.14669 h -11.80833 c -6.49457,0 -14.19297,0.49729 -17.10754,1.10508 -22.15255,4.61963 -39.79922,25.92203 -39.79922,48.04414 0,3.27344 -0.65246,4.70324 -3.4,7.45078 -4.61342,4.61342 -8.58658,4.61342 -13.2,0 -2.89011,-2.89011 -3.4,-4.09617 -3.4,-8.04216 0,-8.52443 2.91628,-19.76947 7.6655,-29.55784 3.88488,-8.00693 5.97161,-10.85317 13.27727,-18.10986 14.68367,-14.58524 30.81596,-20.89014 53.45136,-20.89014 h 10.47845 l -1.98569,-7.16562 c -4.68015,-16.88889 -13.1722,-35.14766 -25.045,-53.84932 l -6.07386,-9.56735 -9.63401,0.32324 c -38.06209,1.27706 -68.54323,16.09955 -89.44121,43.49382 -13.71822,17.98264 -22.67447,43.29171 -22.68879,64.11523 -0.004,5.31711 -0.31373,6.15971 -3.40402,9.25 -4.66404,4.66404 -8.57914,4.62086 -13.34722,-0.14722 l -3.54723,-3.54723 0.64383,-9.82443 c 2.19337,-33.46926 14.51591,-60.82685 38.14417,-84.68488 21.7713,-21.98303 47.26212,-34.02353 79.83953,-37.71194 l 10.46013,-1.1843 -7.75433,-13.00707 C 246.21797,165.13653 216.40621,104.31694 196.09774,53.819129 c -2.93078,-7.2875 -5.61659,-13.25 -5.96848,-13.25 -0.35188,0 -1.90646,3.2625 -3.45461,7.25 -10.48049,26.994062 -27.01089,63.788761 -43.14623,96.038331 -18.58195,37.13961 -33.42906,63.05779 -55.522598,96.92427 -22.32049,34.21435 -31.945947,57.92961 -36.442573,89.7874 -8.378479,59.36005 22.835901,119.47095 76.524121,147.36586 21.22916,11.03008 37.932,15.08959 62.08613,15.08959 23.33177,0 37.96604,-3.31974 59.8975,-13.58757 5.71862,-2.67733 11.44902,-4.86788 12.73422,-4.86788 1.2852,0 3.7961,1.30395 5.57978,2.89766 2.63966,2.35854 3.24305,3.64607 3.24305,6.92013 0,5.35849 -2.0708,7.45875 -12.54565,12.72417 -20.22624,10.16717 -41.57126,15.41482 -64.9089,15.95778 -7.975,0.18555 -15.85,0.15009 -17.5,-0.0788 z m 113.9,-49.82094 c -3.74149,-3.74149 -4.29716,-6.9644 -1.975,-11.45497 1.58024,-3.05585 5.32494,-5.14503 9.22205,-5.14503 3.78904,0 9.35295,5.94883 9.35295,10 0,2.30588 -0.95,4.15 -3.4,6.6 -2.45,2.45 -4.29412,3.4 -6.6,3.4 -2.30588,0 -4.15,-0.95 -6.6,-3.4 z"
       id="path2195" />
  </g>
</svg>
