<?xml version="1.0" encoding="UTF-8" standalone="no"?>
<!-- Created with Inkscape (http://www.inkscape.org/) -->

<svg
   version="1.1"
   id="svg870"
   width="512"
   height="512"
   viewBox="0 0 512 512"
   sodipodi:docname="laundry.svg"
   inkscape:version="1.1.2 (0a00cf5339, 2022-02-04)"
   xmlns:inkscape="http://www.inkscape.org/namespaces/inkscape"
   xmlns:sodipodi="http://sodipodi.sourceforge.net/DTD/sodipodi-0.dtd"
   xmlns="http://www.w3.org/2000/svg"
   xmlns:svg="http://www.w3.org/2000/svg">
  <defs
     id="defs874" />
  <sodipodi:namedview
     id="namedview872"
     pagecolor="#ffffff"
     bordercolor="#666666"
     borderopacity="1.0"
     inkscape:pageshadow="2"
     inkscape:pageopacity="0.0"
     inkscape:pagecheckerboard="0"
     showgrid="false"
     inkscape:zoom="1.4589844"
     inkscape:cx="191.22891"
     inkscape:cy="256"
     inkscape:window-width="1920"
     inkscape:window-height="1007"
     inkscape:window-x="0"
     inkscape:window-y="36"
     inkscape:window-maximized="1"
     inkscape:current-layer="g876" />
  <g
     inkscape:groupmode="layer"
     inkscape:label="Image"
     id="g876">
    <path
       style="fill:#ffffff;stroke-width:0.995535;fill-opacity:1"
       d="m 96.312288,481.76397 c -8.2172,-1.99193 -14.68155,-5.57634 -21.587545,-11.97009 -6.84258,-6.33501 -12.370755,-16.26479 -14.026588,-25.19473 -1.362598,-7.3485 -1.362598,-361.225372 0,-368.573882 1.655833,-8.92993 7.184008,-18.85972 14.026588,-25.194736 3.3308,-3.083732 8.248961,-6.718047 10.929259,-8.076254 11.088586,-5.619014 4.777056,-5.411174 164.807738,-5.427145 96.19462,-0.0096 149.31475,0.33852 152.81028,1.001432 18.31695,3.473738 34.34744,19.493126 37.72284,37.696703 0.63891,3.445675 0.98907,69.455372 0.97961,184.671702 -0.016,194.77088 0.24039,185.48051 -5.42715,196.66486 -1.3582,2.68029 -4.99251,7.59845 -8.07625,10.92926 -6.33502,6.84257 -16.2648,12.37075 -25.19474,14.02658 -3.43009,0.63603 -58.67591,0.96445 -153.31236,0.91139 -122.60938,-0.0688 -148.92651,-0.31967 -153.651682,-1.46509 z M 275.73488,433.09818 c 25.86657,-5.52542 45.98122,-16.4846 64.80427,-35.30765 18.73917,-18.73917 29.79839,-39.01881 35.34013,-64.80428 2.56835,-11.95043 2.58139,-38.04176 0.0249,-49.77674 -11.17649,-51.30228 -48.90554,-89.02925 -100.16929,-100.16372 -11.73411,-2.54865 -37.93479,-2.57342 -49.54596,-0.0469 -51.65953,11.24103 -89.20032,48.78181 -100.44135,100.44134 -2.52657,11.61118 -2.50181,37.81185 0.0469,49.54596 9.78677,45.05883 40.53438,80.27644 83.23963,95.34077 7.42921,2.62066 17.8947,5.13674 27.37721,6.58195 6.12301,0.9332 32.07179,-0.2617 39.32363,-1.81079 z m -42.31023,-30.82967 c -20.34872,-3.95054 -37.4656,-13.47206 -52.04369,-28.95008 -14.21305,-15.09046 -22.88496,-33.65414 -25.2876,-54.13242 -1.39004,-11.8475 -2.20463,-10.56361 9.63492,-15.1857 21.21405,-8.28186 48.38769,-9.16053 69.66609,-2.25269 2.74946,0.89259 10.42156,4.0043 17.04911,6.91491 6.62755,2.91061 15.81136,6.27451 20.40847,7.47534 10.55758,2.75779 31.44127,3.71248 42.48985,1.94241 8.64161,-1.38446 21.72626,-5.27328 27.34279,-8.12642 l 3.73326,-1.89645 v 3.87197 c 0,6.68108 -2.84902,20.57253 -6.01202,29.31392 -4.179,11.54923 -11.76939,23.46136 -21.22628,33.31188 -12.36716,12.88192 -26.9107,21.52719 -43.97219,26.13882 -10.17557,2.75042 -31.5726,3.55673 -41.78271,1.57451 z M 179.78219,114.40485 c 5.22311,-3.90253 6.85232,-7.08334 6.85232,-13.37821 0,-6.294784 -1.62913,-9.475514 -6.85217,-13.378205 -2.59341,-1.937808 -4.28771,-2.070065 -30.3023,-2.365331 -17.68572,-0.200729 -28.85937,0.07108 -31.19622,0.758956 -10.12464,2.980166 -14.02161,16.78203 -7.07082,25.04258 4.78867,5.691 5.91767,5.86079 37.27135,5.60538 27.08901,-0.22068 28.69133,-0.33767 31.29784,-2.28517 z m 157.00765,1.19241 c 10.22874,-4.27383 12.7223,-17.683774 4.76746,-25.638624 -6.45759,-6.457579 -15.67843,-6.457579 -22.13602,0 -12.31133,12.311344 1.27295,32.363804 17.36856,25.638624 z m 47.78567,0 c 10.22874,-4.27383 12.7223,-17.683774 4.76746,-25.638624 -6.45759,-6.457579 -15.67843,-6.457579 -22.13602,0 -12.31133,12.311344 1.27295,32.363804 17.36856,25.638624 z"
       id="path960" />
  </g>
</svg>
