<?xml version="1.0" encoding="UTF-8" standalone="no"?>
<!-- Created with Inkscape (http://www.inkscape.org/) -->

<svg
   version="1.1"
   id="svg1312"
   xml:space="preserve"
   width="5292.5601"
   height="106"
   viewBox="0 0 5292.5601 106"
   sodipodi:docname="663.svg"
   inkscape:version="1.1.2 (0a00cf5339, 2022-02-04)"
   xmlns:inkscape="http://www.inkscape.org/namespaces/inkscape"
   xmlns:sodipodi="http://sodipodi.sourceforge.net/DTD/sodipodi-0.dtd"
   xmlns="http://www.w3.org/2000/svg"
   xmlns:svg="http://www.w3.org/2000/svg"><defs
     id="defs1316" /><sodipodi:namedview
     id="namedview1314"
     pagecolor="#ffffff"
     bordercolor="#666666"
     borderopacity="1.0"
     inkscape:pageshadow="2"
     inkscape:pageopacity="0.0"
     inkscape:pagecheckerboard="0"
     showgrid="false"
     height="5291.3335px"
     inkscape:zoom="0.38433395"
     inkscape:cx="2227.2298"
     inkscape:cy="355.15988"
     inkscape:window-width="1920"
     inkscape:window-height="1007"
     inkscape:window-x="0"
     inkscape:window-y="36"
     inkscape:window-maximized="1"
     inkscape:current-layer="g1320" /><g
     id="g1318"
     inkscape:groupmode="layer"
     inkscape:label="ink_ext_XXXXXX"
     transform="matrix(1.3333333,0,0,-1.3333333,0,5291.3333)"><g
       id="g1320"
       transform="scale(0.1)"><path
         d="m -14.604241,41192.054 v -1882.5 c 240.087011,414.2 729.279311,414.2 969.266111,0 283.57523,-489.2 840.10413,-489.2 1123.67933,0 239.9868,414.2 729.1791,414.2 969.2661,0 283.5753,-489.2 840.1041,-489.2 1123.6794,0 240.087,414.2 729.1791,414.2 969.2661,0 283.5752,-489.2 840.1041,-489.2 1123.6793,0 239.9868,414.2 729.1792,414.2 969.2662,0 283.475,-489.2 840.1041,-489.2 1123.5791,0 240.087,414.3 729.2793,414.2 969.3663,0 283.475,-489.2 840.1033,-489.2 1123.5783,0 240.087,414.2 729.28,414.2 969.267,0 283.574,-489.2 840.103,-489.2 1123.679,0 240.087,414.2 729.179,414.2 969.266,0 283.575,-489.2 840.104,-489.2 1123.679,0 240.087,414.2 729.28,414.2 969.267,0 283.575,-489.2 840.103,-489.2 1123.678,0 239.987,414.2 729.18,414.2 969.267,0 283.575,-489.2 840.104,-489.2 1123.68,0 239.986,414.2 729.178,414.2 969.265,0 283.475,-489.2 840.105,-489.2 1123.68,0 239.987,414.2 729.178,414.2 969.265,0 283.476,-489.2 840.105,-489.2 1123.58,0 240.087,414.2 729.28,414.2 969.368,0 141.687,-244.6 351.812,-366.9 561.738,-366.9 210.126,0 420.051,122.3 561.839,366.9 240.087,414.2 729.28,414.2 969.267,0 283.574,-489.2 840.104,-489.2 1123.68,0 240.086,414.2 729.279,414.2 969.266,0 283.576,-489.2 840.104,-489.2 1123.679,0 239.987,414.2 729.2,414.2 969.287,0 141.747,-244.6 351.803,-366.9 561.799,-366.9 210.046,0 420.032,122.3 561.819,366.9 240.047,414.2 729.22,414.2 969.267,0 283.545,-489.2 840.134,-489.2 1123.67,0 240.056,414.2 729.238,414.2 969.285,0 283.515,-489.2 840.075,-489.2 1123.61,0 240.067,414.2 729.268,414.2 969.325,0 283.536,-489.2 840.085,-489.2 1123.63,0 240.037,414.2 729.219,414.2 969.266,0 283.533,-489.2 840.123,-489.2 1123.674,0 0.02,0 0.04,0.1 0.05,0.1 v 1882.4 H -14.604241"
         style="fill:#1b1d4b;fill-opacity:1;fill-rule:nonzero;stroke:none;stroke-width:1.00101"
         id="path1336" /></g></g></svg>
