<?xml version="1.0" encoding="UTF-8" standalone="no"?>
<!-- Created with Inkscape (http://www.inkscape.org/) -->

<svg
   version="1.1"
   id="svg1936"
   width="682.66669"
   height="682.66669"
   viewBox="0 0 682.66669 682.66669"
   sodipodi:docname="washing-machine.png.svg"
   inkscape:version="1.1.2 (0a00cf5339, 2022-02-04)"
   xmlns:inkscape="http://www.inkscape.org/namespaces/inkscape"
   xmlns:sodipodi="http://sodipodi.sourceforge.net/DTD/sodipodi-0.dtd"
   xmlns="http://www.w3.org/2000/svg"
   xmlns:svg="http://www.w3.org/2000/svg">
  <defs
     id="defs1940" />
  <sodipodi:namedview
     id="namedview1938"
     pagecolor="#ffffff"
     bordercolor="#666666"
     borderopacity="1.0"
     inkscape:pageshadow="2"
     inkscape:pageopacity="0.0"
     inkscape:pagecheckerboard="0"
     showgrid="false"
     inkscape:zoom="1.0532226"
     inkscape:cx="254.45712"
     inkscape:cy="375.51415"
     inkscape:window-width="2560"
     inkscape:window-height="1007"
     inkscape:window-x="1920"
     inkscape:window-y="36"
     inkscape:window-maximized="1"
     inkscape:current-layer="g1942" />
  <g
     inkscape:groupmode="layer"
     inkscape:label="Image"
     id="g1942">
    <path
       style="fill:#000000;stroke-width:1.33333"
       d="m 111.33658,680.84819 c -5.5338,-3.02676 -6,-4.94709 -6,-24.7152 0,-14.90253 -0.38479,-19.07849 -1.75799,-19.07849 -0.9669,0 -4.923882,-0.94016 -8.793292,-2.08926 -9.53581,-2.83184 -17.87134,-10.65543 -21.39947,-20.08519 -2.70033,-7.21728 -2.71591,-8.84869 -2.71591,-284.36026 0,-180.56106 0.46808,-279.569514 1.34353,-284.185779 4.29638,-22.654722 22.67452,-41.073832 45.171792,-45.272497 4.64041,-0.86604 88.86417,-1.332181 238.00001,-1.317222 251.53223,0.02523 241.73371,-0.264144 255.1157,7.534152 15.36122,8.951685 26.19324,25.238754 28.45592,42.786452 1.69094,13.113857 1.58588,548.827384 -0.10947,557.807614 -2.72925,14.45725 -12.65967,24.98104 -26.31085,27.883 l -7,1.48805 v 18.6747 18.6747 l -3.89744,3.89743 -3.89738,3.89744 -241.76924,-0.0406 c -172.43238,-0.0289 -242.53401,-0.45879 -244.43591,-1.49904 z M 582.66993,648.38783 V 637.0545 H 355.33659 128.00325 v 11.33333 11.33333 h 227.33334 227.33334 z m 28.01502,-36.00776 c 2.59816,-1.34356 4.3589,-3.65931 5.3224,-7 1.01202,-3.50907 1.32433,-70.55143 1.05118,-225.65892 l -0.3886,-220.66667 -261.66667,-0.33667 -261.666682,-0.33666 v 223.70666 c 0,203.31243 0.19534,223.98555 2.14267,226.76575 1.17847,1.68249 3.42847,3.57796 5.000002,4.21216 1.57153,0.63419 116.13714,1.19111 254.59022,1.23759 221.69892,0.0744 252.19612,-0.15503 255.61548,-1.92324 z M 346.00326,568.16819 C 316.32766,566.25003 288.68752,558.108 264.80563,544.24957 180.97647,495.60433 149.42409,390.92923 192.69167,305.0113 c 26.43728,-52.49742 75.17515,-87.92161 134.99456,-98.11819 15.58216,-2.65608 48.91962,-1.87839 64.31703,1.50037 110.97827,24.35273 173.16474,139.88367 131.98596,245.20545 -21.34001,54.58077 -70.00808,96.57607 -127.31929,109.86287 -15.6496,3.62813 -36.86299,5.59863 -50.66667,4.70639 z m 38,-25.30864 c 60.24739,-10.58079 109.98564,-57.1295 125.38638,-117.3458 18.15134,-70.97105 -15.60892,-146.157 -80.87451,-180.11188 -35.25028,-18.33922 -79.08349,-22.77632 -117.17854,-11.86163 -34.70913,9.94457 -65.83399,32.3171 -87.11351,62.61715 -42.86747,61.03924 -36.07748,146.00458 16.00679,200.29817 37.39747,38.9838 89.77151,55.88793 143.77339,46.40399 z m -53.30035,-10.57734 c -48.29767,-8.80525 -87.0373,-37.88532 -108.09127,-81.13919 -30.20647,-62.057 -13.41948,-136.98103 40.3257,-179.98248 13.16656,-10.53454 35.761,-22.13598 52.05448,-26.7281 29.62276,-8.34881 63.6508,-6.89156 92.48991,3.9609 60.02996,22.58988 98.11385,80.85102 94.81028,145.04172 -3.67305,71.36998 -56.05027,128.81162 -127.21082,139.51104 -12.58462,1.89218 -31.94683,1.60252 -44.37828,-0.66389 z m 51.30035,-23.7672 c 33.38597,-7.28311 64.06168,-29.82951 81.22455,-59.69936 l 3.58475,-6.23883 -12.40464,4.42726 c -16.78362,5.99012 -29.65918,7.8757 -47.99542,7.02878 -18.12216,-0.83702 -25.37325,-2.71972 -44.77865,-11.6265 -24.5127,-11.25095 -36.76398,-12.49485 -70.7619,-7.18459 -13.47783,2.10514 -42.90796,9.33865 -44.50899,10.93968 -0.54135,0.54135 1.73543,5.03839 5.05951,9.99343 19.23519,28.67292 50.87549,48.5284 86.58079,54.33265 9.30921,1.51331 32.86076,0.45748 44,-1.97252 z m 51.33333,-78.73983 c 4.76667,-1.01877 16.5835,-5.04769 26.25962,-8.95316 l 17.59295,-7.10087 1.58584,-9.33333 c 0.96516,-5.68041 1.29366,-15.33457 0.83932,-24.66667 -2.73202,-56.11415 -42.96511,-103.54049 -97.95574,-115.4692 -15.54679,-3.37245 -40.57742,-3.11381 -55.49131,0.57339 -46.27545,11.44077 -82.31006,47.68961 -93.00955,93.56248 -2.42337,10.38993 -3.4908,29.32241 -2.31003,40.97173 0.99758,9.84191 4.56144,25.69494 5.77639,25.69494 0.23739,0 4.24481,-1.17668 8.90539,-2.61486 30.91637,-9.54021 69.77609,-14.74854 89.80712,-12.03677 13.18332,1.78473 20.06742,3.97415 36.20055,11.5132 6.9456,3.24569 15.74185,6.74015 19.54724,7.76543 8.94549,2.4102 31.18285,2.4595 42.25221,0.0937 z M 617.10015,92.05447 c -0.42867,-43.510315 -0.44211,-43.689954 -3.75239,-50.171871 -1.8272,-3.577866 -5.66163,-8.507687 -8.52095,-10.955159 -10.74801,-9.199898 7.46674,-8.606178 -252.21181,-8.220981 l -234.61175,0.348015 -5.33333,2.883162 c -6.28718,3.398804 -12.718592,9.935965 -16.184062,16.450172 -2.25194,4.23307 -2.51978,8.785847 -2.88266,49.000002 l -0.40004,44.33333 H 355.36675 617.53036 Z m -496.78408,18.33861 c -4.02634,-3.75111 -4.54828,-8.23946 -4.0691,-34.991707 0.40319,-22.509723 0.56481,-23.754753 3.45922,-26.646621 l 3.03627,-3.03361 71.29782,-0.367184 c 80.01604,-0.412083 77.8882,-0.642055 80.69348,8.721147 0.95012,3.171229 1.33528,13.714978 1.0512,28.776608 l -0.44837,23.771517 -3.74101,3.21562 -3.74103,3.21563 h -72.3409 c -70.45017,0 -72.41556,-0.0696 -75.19758,-2.6614 z m 132.7411,-31.005267 -0.38725,-11 -57,-0.34765 -57,-0.34765 v 11.34765 11.347647 h 57.38725 57.38726 z m 64.94609,30.488947 c -32.66668,-15.4432 -21.43098,-64.198988 14.75104,-64.010081 18.92174,0.09879 32.87657,14.104954 33.06616,33.187794 0.24805,24.968377 -25.32776,41.454177 -47.8172,30.822287 z m 21.0059,-21.34933 c 9.79743,-7.436617 1.60491,-23.604097 -9.92426,-19.585007 -5.3164,1.85331 -7.65315,5.03915 -7.70591,10.50599 -0.0829,8.587427 10.85619,14.220727 17.63017,9.079017 z m 74.01282,23.19943 c -19.21156,-5.78468 -29.12587,-29.500857 -19.89584,-47.593197 5.27121,-10.33242 19.12105,-19.079188 30.21045,-19.079188 6.35395,0 17.05462,4.356972 22.28868,9.075248 18.01467,16.23943 14.29083,44.754287 -7.24618,55.486627 -7.18775,3.58181 -17.5942,4.44795 -25.35711,2.11051 z m 18.37828,-24.86708 c 6.65725,-7.183287 1.75215,-18.338637 -8.06367,-18.338637 -9.97594,0 -14.81381,11.35588 -7.81818,18.351517 4.78872,4.78871 11.43688,4.78332 15.88185,-0.0129 z m 52.98867,0.52803 c -4.03271,-4.405987 -4.80575,-8.320087 -2.51724,-12.745557 2.99836,-5.79818 8.00975,-7.2439 23.27783,-6.7153 11.9123,0.41241 13.67293,0.80064 16.74932,3.69328 4.58361,4.30983 4.65493,11.00496 0.16502,15.494847 -3.10716,3.10716 -4.07345,3.27273 -19.1009,3.27273 -14.71195,0 -16.02183,-0.21157 -18.57403,-3 z m 68.46082,0.23656 c -2.59743,-2.043137 -3.51315,-3.977457 -3.51315,-7.420987 0,-9.82898 4.67639,-12.48224 22,-12.48224 17.32361,0 22,2.65326 22,12.48224 0,3.44353 -0.91572,5.37785 -3.51315,7.420987 -3.08046,2.4231 -5.35728,2.76344 -18.48685,2.76344 -13.12957,0 -15.40639,-0.34034 -18.48685,-2.76344 z"
       id="path2003" />
  </g>
</svg>
